<svg width="137" height="145" viewBox="0 0 137 145" fill="none" xmlns="http://www.w3.org/2000/svg">
<g filter="url(#filter0_d_273_77)">
<path d="M11.4434 96C10.5502 94.453 10.5502 92.547 11.4434 91L19.3066 77.3805C20.1998 75.8335 21.8504 74.8805 23.6368 74.8805H39.3632C41.1496 74.8805 42.8002 75.8335 43.6934 77.3805L51.5566 91C52.4498 92.547 52.4498 94.453 51.5566 96L43.6934 109.62C42.8002 111.167 41.1496 112.12 39.3632 112.12H23.6368C21.8504 112.12 20.1998 111.167 19.3066 109.62L11.4434 96Z" fill="white"/>
</g>
<g filter="url(#filter1_d_273_77)">
<path d="M11.4434 53C10.5502 51.453 10.5502 49.547 11.4434 48L19.3066 34.3805C20.1998 32.8335 21.8504 31.8805 23.6368 31.8805H39.3632C41.1496 31.8805 42.8002 32.8335 43.6934 34.3805L51.5566 48C52.4498 49.547 52.4498 51.453 51.5566 53L43.6934 66.6195C42.8002 68.1666 41.1496 69.1195 39.3632 69.1195H23.6368C21.8504 69.1195 20.1998 68.1666 19.3066 66.6195L11.4434 53Z" fill="white"/>
</g>
<g filter="url(#filter2_d_273_77)">
<path d="M85.4434 96C84.5502 94.453 84.5502 92.547 85.4434 91L93.3066 77.3805C94.1998 75.8335 95.8504 74.8805 97.6368 74.8805H113.363C115.15 74.8805 116.8 75.8335 117.693 77.3805L125.557 91C126.45 92.547 126.45 94.453 125.557 96L117.693 109.62C116.8 111.167 115.15 112.12 113.363 112.12H97.6368C95.8504 112.12 94.1998 111.167 93.3066 109.62L85.4434 96Z" fill="white"/>
</g>
<g filter="url(#filter3_d_273_77)">
<path d="M85.4434 53C84.5502 51.453 84.5502 49.547 85.4434 48L93.3066 34.3805C94.1998 32.8335 95.8504 31.8805 97.6368 31.8805H113.363C115.15 31.8805 116.8 32.8335 117.693 34.3805L125.557 48C126.45 49.547 126.45 51.453 125.557 53L117.693 66.6195C116.8 68.1666 115.15 69.1195 113.363 69.1195H97.6368C95.8504 69.1195 94.1998 68.1666 93.3066 66.6195L85.4434 53Z" fill="white"/>
</g>
<g filter="url(#filter4_d_273_77)">
<path d="M48.4434 118C47.5502 116.453 47.5502 114.547 48.4434 113L56.3066 99.3805C57.1998 97.8335 58.8504 96.8805 60.6368 96.8805H76.3632C78.1496 96.8805 79.8002 97.8335 80.6934 99.3805L88.5566 113C89.4498 114.547 89.4498 116.453 88.5566 118L80.6934 131.62C79.8002 133.167 78.1496 134.12 76.3632 134.12H60.6368C58.8504 134.12 57.1998 133.167 56.3066 131.62L48.4434 118Z" fill="white"/>
</g>
<g filter="url(#filter5_d_273_77)">
<path d="M48.4434 32C47.5502 30.453 47.5502 28.547 48.4434 27L56.3066 13.3805C57.1998 11.8335 58.8504 10.8805 60.6368 10.8805H76.3632C78.1496 10.8805 79.8002 11.8335 80.6934 13.3805L88.5566 27C89.4498 28.547 89.4498 30.453 88.5566 32L80.6934 45.6195C79.8002 47.1666 78.1496 48.1195 76.3632 48.1195H60.6368C58.8504 48.1195 57.1998 47.1666 56.3066 45.6195L48.4434 32Z" fill="white"/>
</g>
<g filter="url(#filter6_d_273_77)">
<path d="M48.4434 75C47.5502 73.453 47.5502 71.547 48.4434 70L56.3066 56.3805C57.1998 54.8335 58.8504 53.8805 60.6368 53.8805H76.3632C78.1496 53.8805 79.8002 54.8335 80.6934 56.3805L88.5566 70C89.4498 71.547 89.4498 73.453 88.5566 75L80.6934 88.6195C79.8002 90.1666 78.1496 91.1195 76.3632 91.1195H60.6368C58.8504 91.1195 57.1998 90.1666 56.3066 88.6195L48.4434 75Z" fill="white"/>
</g>
<defs>
<filter id="filter0_d_273_77" x="0" y="62" width="63" height="63" filterUnits="userSpaceOnUse" color-interpolation-filters="sRGB">
<feFlood flood-opacity="0" result="BackgroundImageFix"/>
<feColorMatrix in="SourceAlpha" type="matrix" values="0 0 0 0 0 0 0 0 0 0 0 0 0 0 0 0 0 0 127 0" result="hardAlpha"/>
<feOffset/>
<feGaussianBlur stdDeviation="5"/>
<feComposite in2="hardAlpha" operator="out"/>
<feColorMatrix type="matrix" values="0 0 0 0 1 0 0 0 0 1 0 0 0 0 1 0 0 0 0.5 0"/>
<feBlend mode="normal" in2="BackgroundImageFix" result="effect1_dropShadow_273_77"/>
<feBlend mode="normal" in="SourceGraphic" in2="effect1_dropShadow_273_77" result="shape"/>
</filter>
<filter id="filter1_d_273_77" x="0" y="19" width="63" height="63" filterUnits="userSpaceOnUse" color-interpolation-filters="sRGB">
<feFlood flood-opacity="0" result="BackgroundImageFix"/>
<feColorMatrix in="SourceAlpha" type="matrix" values="0 0 0 0 0 0 0 0 0 0 0 0 0 0 0 0 0 0 127 0" result="hardAlpha"/>
<feOffset/>
<feGaussianBlur stdDeviation="5"/>
<feComposite in2="hardAlpha" operator="out"/>
<feColorMatrix type="matrix" values="0 0 0 0 1 0 0 0 0 1 0 0 0 0 1 0 0 0 0.5 0"/>
<feBlend mode="normal" in2="BackgroundImageFix" result="effect1_dropShadow_273_77"/>
<feBlend mode="normal" in="SourceGraphic" in2="effect1_dropShadow_273_77" result="shape"/>
</filter>
<filter id="filter2_d_273_77" x="74" y="62" width="63" height="63" filterUnits="userSpaceOnUse" color-interpolation-filters="sRGB">
<feFlood flood-opacity="0" result="BackgroundImageFix"/>
<feColorMatrix in="SourceAlpha" type="matrix" values="0 0 0 0 0 0 0 0 0 0 0 0 0 0 0 0 0 0 127 0" result="hardAlpha"/>
<feOffset/>
<feGaussianBlur stdDeviation="5"/>
<feComposite in2="hardAlpha" operator="out"/>
<feColorMatrix type="matrix" values="0 0 0 0 1 0 0 0 0 1 0 0 0 0 1 0 0 0 0.5 0"/>
<feBlend mode="normal" in2="BackgroundImageFix" result="effect1_dropShadow_273_77"/>
<feBlend mode="normal" in="SourceGraphic" in2="effect1_dropShadow_273_77" result="shape"/>
</filter>
<filter id="filter3_d_273_77" x="74" y="19" width="63" height="63" filterUnits="userSpaceOnUse" color-interpolation-filters="sRGB">
<feFlood flood-opacity="0" result="BackgroundImageFix"/>
<feColorMatrix in="SourceAlpha" type="matrix" values="0 0 0 0 0 0 0 0 0 0 0 0 0 0 0 0 0 0 127 0" result="hardAlpha"/>
<feOffset/>
<feGaussianBlur stdDeviation="5"/>
<feComposite in2="hardAlpha" operator="out"/>
<feColorMatrix type="matrix" values="0 0 0 0 1 0 0 0 0 1 0 0 0 0 1 0 0 0 0.5 0"/>
<feBlend mode="normal" in2="BackgroundImageFix" result="effect1_dropShadow_273_77"/>
<feBlend mode="normal" in="SourceGraphic" in2="effect1_dropShadow_273_77" result="shape"/>
</filter>
<filter id="filter4_d_273_77" x="37" y="84" width="63" height="63" filterUnits="userSpaceOnUse" color-interpolation-filters="sRGB">
<feFlood flood-opacity="0" result="BackgroundImageFix"/>
<feColorMatrix in="SourceAlpha" type="matrix" values="0 0 0 0 0 0 0 0 0 0 0 0 0 0 0 0 0 0 127 0" result="hardAlpha"/>
<feOffset/>
<feGaussianBlur stdDeviation="5"/>
<feComposite in2="hardAlpha" operator="out"/>
<feColorMatrix type="matrix" values="0 0 0 0 1 0 0 0 0 1 0 0 0 0 1 0 0 0 0.5 0"/>
<feBlend mode="normal" in2="BackgroundImageFix" result="effect1_dropShadow_273_77"/>
<feBlend mode="normal" in="SourceGraphic" in2="effect1_dropShadow_273_77" result="shape"/>
</filter>
<filter id="filter5_d_273_77" x="37" y="-2" width="63" height="63" filterUnits="userSpaceOnUse" color-interpolation-filters="sRGB">
<feFlood flood-opacity="0" result="BackgroundImageFix"/>
<feColorMatrix in="SourceAlpha" type="matrix" values="0 0 0 0 0 0 0 0 0 0 0 0 0 0 0 0 0 0 127 0" result="hardAlpha"/>
<feOffset/>
<feGaussianBlur stdDeviation="5"/>
<feComposite in2="hardAlpha" operator="out"/>
<feColorMatrix type="matrix" values="0 0 0 0 1 0 0 0 0 1 0 0 0 0 1 0 0 0 0.5 0"/>
<feBlend mode="normal" in2="BackgroundImageFix" result="effect1_dropShadow_273_77"/>
<feBlend mode="normal" in="SourceGraphic" in2="effect1_dropShadow_273_77" result="shape"/>
</filter>
<filter id="filter6_d_273_77" x="37" y="41" width="63" height="63" filterUnits="userSpaceOnUse" color-interpolation-filters="sRGB">
<feFlood flood-opacity="0" result="BackgroundImageFix"/>
<feColorMatrix in="SourceAlpha" type="matrix" values="0 0 0 0 0 0 0 0 0 0 0 0 0 0 0 0 0 0 127 0" result="hardAlpha"/>
<feOffset/>
<feGaussianBlur stdDeviation="5"/>
<feComposite in2="hardAlpha" operator="out"/>
<feColorMatrix type="matrix" values="0 0 0 0 1 0 0 0 0 1 0 0 0 0 1 0 0 0 0.5 0"/>
<feBlend mode="normal" in2="BackgroundImageFix" result="effect1_dropShadow_273_77"/>
<feBlend mode="normal" in="SourceGraphic" in2="effect1_dropShadow_273_77" result="shape"/>
</filter>
</defs>
</svg>
