<svg width="24" height="24" viewBox="0 0 24 24" fill="none" xmlns="http://www.w3.org/2000/svg">
<path d="M9.91664 18.475L7.85164 20.4817C7.31015 21.0232 6.57575 21.3274 5.80997 21.3274C5.0442 21.3274 4.30979 21.0232 3.76831 20.4817C3.22682 19.9402 2.92262 19.2058 2.92262 18.44C2.92262 17.6742 3.22682 16.9398 3.76831 16.3983L9.06497 11.09C9.58485 10.5684 10.2853 10.2667 11.0215 10.2471C11.7576 10.2276 12.4731 10.4918 13.02 10.985L13.16 11.1017C13.3812 11.3183 13.6794 11.4381 13.989 11.4348C14.2986 11.4315 14.5942 11.3054 14.8108 11.0842C15.0274 10.8629 15.1472 10.5647 15.144 10.2551C15.1407 9.94553 15.0145 9.64993 14.7933 9.43333C14.7271 9.34848 14.657 9.26673 14.5833 9.18833C13.5874 8.32187 12.2994 7.86632 10.9801 7.91398C9.66091 7.96164 8.40911 8.50893 7.4783 9.445L2.11164 14.7533C1.19972 15.7459 0.706529 17.0524 0.735059 18.4C0.763589 19.7476 1.31163 21.0321 2.26474 21.9852C3.21785 22.9383 4.50233 23.4864 5.84993 23.5149C7.19753 23.5434 8.50405 23.0503 9.49664 22.1383L11.515 20.1667C11.7143 19.9493 11.8238 19.6644 11.8216 19.3695C11.8194 19.0746 11.7055 18.7915 11.503 18.5771C11.3004 18.3627 11.0242 18.233 10.7299 18.2141C10.4356 18.1951 10.145 18.2884 9.91664 18.475ZM22.3883 1.86167C21.4069 0.886343 20.0794 0.338921 18.6958 0.338921C17.3122 0.338921 15.9847 0.886343 15.0033 1.86167L12.985 3.83333C12.7857 4.05074 12.6761 4.33556 12.6784 4.63048C12.6806 4.9254 12.7944 5.20853 12.997 5.4229C13.1995 5.63728 13.4757 5.76698 13.7701 5.78593C14.0644 5.80487 14.3549 5.71164 14.5833 5.525L16.6016 3.51833C17.1431 2.97685 17.8775 2.67265 18.6433 2.67265C19.4091 2.67265 20.1435 2.97685 20.685 3.51833C21.2265 4.05982 21.5307 4.79423 21.5307 5.56C21.5307 6.32577 21.2265 7.06018 20.685 7.60167L15.3883 12.91C14.8684 13.4316 14.1679 13.7333 13.4318 13.7529C12.6956 13.7724 11.9801 13.5083 11.4333 13.015L11.2933 12.8983C11.0721 12.6817 10.7739 12.5619 10.4643 12.5652C10.1547 12.5685 9.85907 12.6946 9.64247 12.9158C9.42588 13.1371 9.30604 13.4353 9.30932 13.7449C9.3126 14.0545 9.43874 14.3501 9.65997 14.5667C9.74511 14.6529 9.83468 14.7347 9.92831 14.8117C10.9254 15.6755 12.2129 16.1294 13.5313 16.0817C14.8497 16.0341 16.1011 15.4886 17.0333 14.555L22.3416 9.24667C23.3232 8.27142 23.879 6.94744 23.8878 5.56379C23.8965 4.18015 23.3575 2.84924 22.3883 1.86167Z" fill="white" fill-opacity="0.6"/>
</svg>
