<svg width="29" height="22" viewBox="0 0 29 22" fill="none" xmlns="http://www.w3.org/2000/svg">
<path d="M24.0215 2.06278C22.2481 1.23229 20.3281 0.629519 18.328 0.28125C18.2928 0.281753 18.2593 0.296197 18.2347 0.321435C17.9947 0.763469 17.7147 1.33945 17.528 1.78149C15.4066 1.46021 13.2492 1.46021 11.1278 1.78149C10.9411 1.32606 10.6611 0.763469 10.4078 0.321435C10.3945 0.294645 10.3544 0.28125 10.3144 0.28125C8.31439 0.629519 6.40767 1.23229 4.62096 2.06278C4.60763 2.06278 4.59429 2.07618 4.58096 2.08957C0.954192 7.54132 -0.0458354 12.8457 0.447511 18.0966C0.447511 18.1233 0.460845 18.1501 0.487512 18.1635C2.88758 19.9317 5.19431 21.0033 7.47437 21.7132C7.51437 21.7266 7.55437 21.7132 7.56771 21.6864C8.10105 20.9497 8.58107 20.1728 8.99441 19.3557C9.02108 19.3021 8.99441 19.2485 8.94108 19.2351C8.18106 18.9404 7.46104 18.5922 6.75435 18.1903C6.70102 18.1635 6.70102 18.0832 6.74102 18.043C6.88769 17.9358 7.03436 17.8153 7.18103 17.7081C7.2077 17.6813 7.2477 17.6813 7.27437 17.6947C11.8612 19.7977 16.808 19.7977 21.3414 17.6947C21.3681 17.6813 21.4081 17.6813 21.4348 17.7081C21.5814 17.8287 21.7281 17.9358 21.8748 18.0564C21.9281 18.0966 21.9281 18.1769 21.8614 18.2037C21.1681 18.619 20.4347 18.9538 19.6747 19.2485C19.6214 19.2619 19.608 19.3289 19.6214 19.3691C20.048 20.1862 20.5281 20.9631 21.0481 21.6998C21.0881 21.7132 21.1281 21.7266 21.1681 21.7132C23.4615 21.0033 25.7682 19.9317 28.1683 18.1635C28.1949 18.1501 28.2083 18.1233 28.2083 18.0966C28.795 12.0286 27.2349 6.76442 24.0748 2.08957C24.0615 2.07618 24.0482 2.06278 24.0215 2.06278ZM9.68777 14.8952C8.31439 14.8952 7.1677 13.6226 7.1677 12.0554C7.1677 10.4882 8.28773 9.21569 9.68777 9.21569C11.1011 9.21569 12.2212 10.5016 12.2078 12.0554C12.2078 13.6226 11.0878 14.8952 9.68777 14.8952ZM18.9814 14.8952C17.608 14.8952 16.4613 13.6226 16.4613 12.0554C16.4613 10.4882 17.5813 9.21569 18.9814 9.21569C20.3947 9.21569 21.5148 10.5016 21.5014 12.0554C21.5014 13.6226 20.3947 14.8952 18.9814 14.8952Z" fill="white"/>
</svg>
