<svg width="147" height="147" viewBox="0 0 147 147" fill="none" xmlns="http://www.w3.org/2000/svg">
<path d="M15 94.5L25.75 75.8805H47.25L58 94.5L47.25 113.12H25.75L15 94.5Z" fill="black"/>
<path d="M15 51.5L25.75 32.8805H47.25L58 51.5L47.25 70.1195H25.75L15 51.5Z" fill="black"/>
<path d="M89 94.5L99.75 75.8805H121.25L132 94.5L121.25 113.12H99.75L89 94.5Z" fill="black"/>
<path d="M89 51.5L99.75 32.8805H121.25L132 51.5L121.25 70.1195H99.75L89 51.5Z" fill="black"/>
<path d="M52 116.5L62.75 97.8805H84.25L95 116.5L84.25 135.12H62.75L52 116.5Z" fill="black"/>
<path d="M52 30.5L62.75 11.8805H84.25L95 30.5L84.25 49.1195H62.75L52 30.5Z" fill="black"/>
<path d="M52 73.5L62.75 54.8805H84.25L95 73.5L84.25 92.1195H62.75L52 73.5Z" fill="black"/>
</svg>
