<svg width="18" height="18" viewBox="0 0 18 18" fill="none" xmlns="http://www.w3.org/2000/svg">
<path d="M1 0H17C17.2652 0 17.5196 0.105357 17.7071 0.292893C17.8946 0.48043 18 0.734784 18 1V2.586C17.9999 2.85119 17.8946 3.10551 17.707 3.293L11.293 9.707C11.1055 9.89449 11.0001 10.1488 11 10.414V16.719C11 16.8709 10.9653 17.0208 10.8987 17.1573C10.8321 17.2938 10.7352 17.4133 10.6155 17.5068C10.4958 17.6003 10.3564 17.6653 10.2078 17.6969C10.0592 17.7285 9.90538 17.7258 9.758 17.689L7.758 17.189C7.54157 17.135 7.3494 17.0102 7.21205 16.8345C7.0747 16.6587 7.00006 16.4421 7 16.219V10.414C6.99994 10.1488 6.89455 9.89449 6.707 9.707L0.293 3.293C0.105451 3.10551 5.66374e-05 2.85119 0 2.586V1C0 0.734784 0.105357 0.48043 0.292893 0.292893C0.48043 0.105357 0.734784 0 1 0Z" fill="white" fill-opacity="0.7"/>
</svg>
