<svg width="27" height="26" viewBox="0 0 27 26" fill="none" xmlns="http://www.w3.org/2000/svg">
<path d="M13.665 0.474915C11.9138 0.474915 10.1797 0.806929 8.56187 1.452C6.944 2.09708 5.47396 3.04257 4.23569 4.23451C1.73489 6.64175 0.329956 9.90665 0.329956 13.311C0.329956 18.9845 4.1571 23.7981 9.4511 25.5053C10.1178 25.6079 10.3312 25.21 10.3312 24.8635V22.6942C6.63741 23.4643 5.85065 20.9741 5.85065 20.9741C5.23724 19.4851 4.37046 19.0872 4.37046 19.0872C3.15698 18.2914 4.46381 18.3171 4.46381 18.3171C5.79731 18.4069 6.50406 19.6392 6.50406 19.6392C7.66421 21.5903 9.62445 21.0126 10.3845 20.7046C10.5046 19.8702 10.8513 19.3054 11.2247 18.9845C8.26428 18.6636 5.15723 17.5597 5.15723 12.6692C5.15723 11.2444 5.66396 10.102 6.53073 9.19061C6.39738 8.86971 5.93066 7.53476 6.66408 5.80189C6.66408 5.80189 7.78422 5.45531 10.3312 7.11117C11.3847 6.82877 12.5315 6.68757 13.665 6.68757C14.7984 6.68757 15.9452 6.82877 16.9987 7.11117C19.5457 5.45531 20.6658 5.80189 20.6658 5.80189C21.3993 7.53476 20.9325 8.86971 20.7992 9.19061C21.666 10.102 22.1727 11.2444 22.1727 12.6692C22.1727 17.5726 19.0523 18.6508 16.0786 18.9717C16.5587 19.3696 16.9987 20.1526 16.9987 21.3464V24.8635C16.9987 25.21 17.2121 25.6208 17.8922 25.5053C23.1861 23.7852 27 18.9845 27 13.311C27 11.6253 26.655 9.95618 25.9849 8.39884C25.3147 6.84149 24.3325 5.42645 23.0942 4.23451C21.856 3.04257 20.3859 2.09708 18.768 1.452C17.1502 0.806929 15.4161 0.474915 13.665 0.474915Z" fill="white"/>
</svg>
