<svg width="26" height="28" viewBox="0 0 26 28" xmlns="http://www.w3.org/2000/svg">
<path d="M10.2133 8.01331L8.61333 5.34665C8.36 4.91998 8.36 4.39998 8.61333 3.97331L10.2133 1.30665C10.4533 0.906647 10.8933 0.666647 11.36 0.666647H14.6267C14.8583 0.665352 15.0862 0.725044 15.2875 0.839725C15.4888 0.954406 15.6563 1.12004 15.7733 1.31998L17.3733 3.98665C17.6267 4.41331 17.6267 4.93331 17.3733 5.35998L15.7733 8.02665C15.5467 8.42665 15.1067 8.66665 14.64 8.66665H11.3733C10.8933 8.66665 10.4533 8.42665 10.2133 8.01331ZM15.7867 10.6533L17.3867 13.32C17.64 13.7466 17.64 14.2666 17.3867 14.6933L15.7867 17.36C15.5467 17.76 15.1067 18.0133 14.64 18.0133H11.36C10.8933 18.0133 10.4533 17.7733 10.2133 17.36L8.61333 14.6933C8.36 14.2666 8.36 13.7466 8.61333 13.32L10.2133 10.6533C10.3303 10.4534 10.4979 10.2877 10.6992 10.1731C10.9004 10.0584 11.1283 9.99869 11.36 9.99998H14.64C14.8717 9.99869 15.0996 10.0584 15.3008 10.1731C15.5021 10.2877 15.6697 10.4534 15.7867 10.6533ZM6.32 13.3466H3.05333C2.58667 13.3466 2.14667 13.1066 1.90667 12.6933L0.306665 10.0266C0.0533314 9.59998 0.0533314 9.07998 0.306665 8.65331L1.90667 5.98665C2.14667 5.58665 2.58667 5.33331 3.05333 5.33331H6.32C6.55165 5.33202 6.77957 5.39171 6.98084 5.50639C7.18212 5.62107 7.34967 5.7867 7.46667 5.98665L9.06667 8.65331C9.32 9.07998 9.32 9.59998 9.06667 10.0266L7.46667 12.6933C7.21334 13.1066 6.78667 13.3466 6.32 13.3466ZM3.04 14.68H6.32C6.55165 14.6787 6.77957 14.7384 6.98084 14.8531C7.18212 14.9677 7.34967 15.1334 7.46667 15.3333L9.06667 18C9.32 18.4266 9.32 18.9466 9.06667 19.3733L7.46667 22.04C7.22667 22.44 6.78667 22.6933 6.32 22.6933H3.04C2.57333 22.6933 2.13333 22.4533 1.89333 22.04L0.293331 19.3733C0.039999 18.9466 0.039999 18.4266 0.293331 18L1.89333 15.3333C2.13333 14.9333 2.57333 14.68 3.04 14.68ZM18.5467 12.7066L16.9467 10.04C16.6933 9.61331 16.6933 9.09331 16.9467 8.66665L18.5467 5.99998C18.7867 5.59998 19.2133 5.34665 19.68 5.34665H22.96C23.4267 5.34665 23.8667 5.59998 24.1067 5.99998L25.7067 8.66665C25.96 9.09331 25.96 9.61331 25.7067 10.04L24.1067 12.7066C23.8667 13.1066 23.4267 13.36 22.96 13.36H19.6933C19.2133 13.3466 18.7867 13.1066 18.5467 12.7066ZM19.68 14.68H22.96C23.1917 14.6787 23.4196 14.7384 23.6208 14.8531C23.8221 14.9677 23.9897 15.1334 24.1067 15.3333L25.7067 18C25.96 18.4266 25.96 18.9466 25.7067 19.3733L24.1067 22.04C23.8667 22.44 23.4267 22.6933 22.96 22.6933H19.68C19.2133 22.6933 18.7733 22.4533 18.5333 22.04L16.9333 19.3733C16.68 18.9466 16.68 18.4266 16.9333 18L18.5333 15.3333C18.7867 14.9333 19.2133 14.68 19.68 14.68ZM15.7867 19.9866L17.3867 22.6533C17.64 23.08 17.64 23.6 17.3867 24.0266L15.7867 26.6933C15.5467 27.0933 15.1067 27.3466 14.64 27.3466H11.36C10.8933 27.3466 10.4533 27.1066 10.2133 26.6933L8.61333 24.0266C8.36 23.6 8.36 23.08 8.61333 22.6533L10.2133 19.9866C10.4533 19.5866 10.8933 19.3333 11.36 19.3333H14.64C14.8717 19.332 15.0996 19.3917 15.3008 19.5064C15.5021 19.6211 15.6697 19.7867 15.7867 19.9866Z"/>
</svg>
