<svg width="29" height="24" viewBox="0 0 29 24" fill="none" xmlns="http://www.w3.org/2000/svg">
<path d="M25.9437 0.211897C25.9437 0.211897 28.5338 -0.826956 28.3171 1.69578C28.2457 2.73463 27.5984 6.37096 27.0944 10.3035L25.3677 21.9537C25.3677 21.9537 25.2237 23.6605 23.9284 23.9574C22.6337 24.2536 20.691 22.9185 20.331 22.6216C20.043 22.3988 14.935 19.0594 13.1363 17.4274C12.6323 16.9817 12.0563 16.0916 13.2083 15.0527L20.763 7.63198C21.6264 6.74055 22.4897 4.66285 18.8923 7.18627L8.8189 14.2354C8.8189 14.2354 7.66755 14.978 5.50953 14.3101L0.832157 12.8256C0.832157 12.8256 -0.894526 11.7126 2.0555 10.5997C9.2509 7.11221 18.101 3.55063 25.9431 0.211211" fill="white"/>
</svg>
