<svg width="19" height="18" viewBox="0 0 19 18" fill="none" xmlns="http://www.w3.org/2000/svg">
<path d="M0.784773 7.78275L0.580773 7.755C0.544773 8.013 0.519273 8.27625 0.505023 8.53575L0.711273 8.54775C0.724773 8.29175 0.749273 8.03675 0.784773 7.78275ZM3.60177 2.46675L3.46377 2.313C3.27027 2.487 3.08202 2.673 2.90427 2.8635L3.05577 3.0045C3.22902 2.8185 3.41277 2.637 3.60177 2.46675ZM4.82652 1.54425L4.71702 1.368C4.49402 1.508 4.27827 1.6565 4.06977 1.8135L4.19427 1.97775C4.39677 1.8255 4.60977 1.6785 4.82652 1.54425ZM1.86777 13.7767C2.00677 14.0002 2.15502 14.216 2.31252 14.424L2.47752 14.301C2.32358 14.0963 2.17845 13.8851 2.04252 13.668L1.86777 13.7767ZM1.34502 12.3015L1.15377 12.3795C1.25127 12.619 1.35902 12.8547 1.47702 13.0868L1.48077 13.0942L1.66452 13.0005L1.66077 12.993C1.54583 12.767 1.44049 12.5363 1.34502 12.3015ZM0.723273 6.98175L0.925023 7.029C0.982023 6.78 1.05102 6.531 1.12902 6.2895L0.933273 6.22425C0.852273 6.47325 0.781773 6.72825 0.723273 6.98175ZM0.705273 9.315L0.499023 9.3225C0.508023 9.5835 0.529023 9.84675 0.561273 10.1047L0.766023 10.08C0.734523 9.828 0.714273 9.57 0.705273 9.315ZM0.691773 10.8795C0.746523 11.1345 0.813273 11.391 0.889773 11.64L1.08702 11.58C1.01202 11.335 0.947523 11.0875 0.893523 10.8375L0.691773 10.8795ZM9.17952 0.20625L9.17202 0C8.91102 0.009 8.64777 0.02925 8.38902 0.0615L8.41452 0.26625C8.66852 0.23525 8.92352 0.21525 9.17952 0.20625ZM17.9155 6.4245C17.9905 6.669 18.055 6.9195 18.1075 7.1685L18.31 7.12425C18.256 6.86925 18.19 6.61275 18.1135 6.36375L17.9155 6.4245ZM13.7155 1.04175C13.4838 0.91921 13.2468 0.806853 13.0053 0.705L12.925 0.894C13.1615 0.994 13.393 1.10375 13.6195 1.22325L13.7155 1.04175ZM12.2695 0.429C12.02 0.3495 11.7675 0.28025 11.512 0.22125L11.4648 0.42225C11.7148 0.47975 11.9618 0.548 12.2058 0.627L12.2695 0.429ZM5.50527 1.15875C5.72977 1.04575 5.95877 0.94125 6.19227 0.84525L6.11427 0.65475C5.87527 0.75075 5.64102 0.85775 5.41152 0.97575L5.40027 0.98175L5.49402 1.16475L5.50527 1.15875ZM18.295 8.691L18.5013 8.6835C18.4922 8.42148 18.4717 8.15998 18.4398 7.89975L18.235 7.9245C18.2658 8.178 18.286 8.436 18.295 8.691ZM10.7403 0.07875C10.4803 0.04375 10.2195 0.01925 9.95802 0.00525L9.94752 0.21C10.2018 0.2235 10.4598 0.24825 10.7118 0.2835L10.7403 0.07875ZM7.65777 0.39525L7.61427 0.19275C7.35927 0.24675 7.10352 0.31275 6.85377 0.39075L6.91452 0.58725C7.15827 0.513 7.40877 0.4485 7.65777 0.39525ZM1.94052 4.10175L2.11377 4.21425C2.25252 4.0005 2.40177 3.78975 2.55777 3.58875L2.39502 3.46125C2.23452 3.66925 2.08302 3.88275 1.94052 4.10175ZM1.20702 5.4885L1.39677 5.56875C1.49577 5.334 1.60677 5.1 1.72602 4.87575L1.54377 4.77975C1.42152 5.01 1.30827 5.2485 1.20702 5.4885ZM14.167 16.4573L14.2758 16.6327C14.497 16.4932 14.7153 16.344 14.923 16.1873L14.8 16.023C14.596 16.176 14.3823 16.323 14.167 16.4573ZM16.4358 14.4142L16.5985 14.5417C16.7598 14.337 16.912 14.121 17.0538 13.9012L16.8813 13.7902C16.7413 14.0047 16.5928 14.2127 16.4358 14.4142ZM15.391 15.5363L15.529 15.6885C15.7225 15.516 15.9115 15.3293 16.0885 15.1395L15.9378 14.9985C15.7653 15.1845 15.58 15.3645 15.391 15.5363ZM17.269 13.128L17.452 13.2247C17.5735 12.9945 17.6875 12.756 17.7888 12.516L17.5983 12.4357C17.4993 12.6715 17.3894 12.9025 17.269 13.128ZM18.2125 10.2218L18.4173 10.251C18.4538 9.991 18.4793 9.73025 18.4938 9.46875L18.2875 9.45825C18.2744 9.71378 18.2493 9.96855 18.2125 10.2218ZM17.8668 11.7157L18.0648 11.7802C18.1453 11.5308 18.215 11.2782 18.274 11.0227L18.073 10.9755C18.0153 11.2253 17.9463 11.4742 17.8668 11.7157ZM17.3395 5.004C17.455 5.23125 17.5623 5.46675 17.6575 5.703L17.8495 5.625C17.751 5.3821 17.6419 5.14362 17.5225 4.91025L17.3395 5.004ZM6.72177 17.5635C6.97077 17.644 7.22302 17.7138 7.47852 17.7728L7.52502 17.5718C7.27572 17.514 7.029 17.4457 6.78552 17.367L6.72177 17.5635ZM8.25102 17.9167C8.50977 17.9535 8.77302 17.9782 9.03327 17.9932L9.04377 17.787C8.78809 17.7734 8.53311 17.7489 8.27952 17.7135L8.25102 17.9167ZM13.4943 16.8368C13.2663 16.9527 13.0348 17.0588 12.7998 17.1547L12.8778 17.3468C13.1163 17.2485 13.357 17.1405 13.588 17.0212L13.591 17.0198L13.4988 16.8353L13.4943 16.8368ZM3.95952 16.1003C4.16502 16.26 4.38102 16.4137 4.60002 16.554L4.71177 16.3815C4.49731 16.2424 4.28887 16.0943 4.08702 15.9375L3.95952 16.1003ZM9.81252 17.7938L9.81927 18C10.0813 17.9895 10.3427 17.9685 10.603 17.937L10.5768 17.7337C10.3248 17.7645 10.0668 17.7847 9.81252 17.7938ZM5.27727 16.953C5.50877 17.0755 5.74527 17.1877 5.98677 17.2897L6.06702 17.0993C5.83145 16.9994 5.60024 16.8896 5.37402 16.77L5.27727 16.953ZM2.81202 15.0308C2.98677 15.2242 3.17202 15.4133 3.36252 15.5903L3.50352 15.4395C3.31677 15.267 3.13602 15.0817 2.96577 14.8927L2.81202 15.0308ZM11.3335 17.6063L11.3778 17.8088C11.6341 17.7534 11.8878 17.6868 12.1383 17.6092L12.0768 17.4128C11.833 17.487 11.5825 17.5515 11.3335 17.6063ZM16.3848 0.09675C15.8499 0.09675 15.3369 0.309228 14.9587 0.687442C14.5805 1.06566 14.368 1.57862 14.368 2.1135C14.368 2.64838 14.5805 3.16134 14.9587 3.53956C15.3369 3.91777 15.8499 4.13025 16.3848 4.13025C16.9196 4.13025 17.4326 3.91777 17.8108 3.53956C18.189 3.16134 18.4015 2.64838 18.4015 2.1135C18.4015 1.57862 18.189 1.06566 17.8108 0.687442C17.4326 0.309228 16.9196 0.09675 16.3848 0.09675ZM11.9928 11.5852C11.9928 11.9385 12.2283 12.0802 12.6318 12.0802C13.1343 12.0802 13.6045 11.7832 13.6045 11.3182V10.8345C13.432 10.9148 13.3203 10.9402 12.7743 11.0145C12.223 11.0962 11.9928 11.244 11.9928 11.5852ZM9.49977 2.1135C7.67376 2.1135 5.92253 2.83888 4.63134 4.13007C3.34016 5.42126 2.61477 7.17248 2.61477 8.9985C2.61477 10.3602 3.01857 11.6914 3.7751 12.8236C4.53164 13.9558 5.60693 14.8383 6.865 15.3594C8.12307 15.8805 9.50741 16.0169 10.843 15.7512C12.1785 15.4855 13.4053 14.8298 14.3682 13.8669C15.3311 12.904 15.9868 11.6773 16.2525 10.3417C16.5181 9.00614 16.3818 7.62179 15.8607 6.36372C15.3396 5.10566 14.4571 4.03036 13.3249 3.27383C12.1926 2.5173 10.8615 2.1135 9.49977 2.1135ZM7.63452 12.441H4.82802V7.92375H5.40477V11.9333H7.63527L7.63452 12.441ZM10.732 12.441H10.2678V11.9385C9.96402 12.366 9.65952 12.5333 9.18327 12.5333C8.55102 12.5333 8.14827 12.186 8.14827 11.6468V9.1935H8.66277V11.4435C8.66277 11.8335 8.92302 12.081 9.33252 12.081C9.87177 12.081 10.2183 11.6475 10.2183 10.9853V9.1935H10.7328V12.441H10.732ZM10.3345 6.14625C10.3228 5.87424 10.3663 5.60267 10.4624 5.34792C10.5584 5.09316 10.7051 4.86048 10.8934 4.66389C11.0818 4.4673 11.308 4.31087 11.5584 4.20402C11.8088 4.09717 12.0783 4.04211 12.3505 4.04217C12.6228 4.04222 12.8922 4.09737 13.1426 4.20432C13.393 4.31126 13.6191 4.46777 13.8074 4.66443C13.9957 4.86109 14.1423 5.09383 14.2382 5.34862C14.3342 5.60341 14.3776 5.87499 14.3658 6.147C14.3433 6.66653 14.121 7.15731 13.7454 7.51693C13.3698 7.87656 12.8698 8.07726 12.3498 8.07717C11.8298 8.07707 11.3299 7.87618 10.9544 7.51641C10.5789 7.15665 10.3568 6.66579 10.3345 6.14625ZM14.5098 12.0382V12.4282C14.3425 12.4725 14.2623 12.4838 14.1565 12.4838C14.0323 12.4835 13.9119 12.4411 13.815 12.3634C13.7181 12.2857 13.6505 12.1774 13.6233 12.0563C13.4814 12.2066 13.3105 12.3265 13.1208 12.4086C12.9311 12.4908 12.7267 12.5334 12.52 12.534C11.8623 12.534 11.4535 12.1867 11.4535 11.598C11.4535 11.2028 11.6455 10.911 12.0235 10.7557C12.223 10.6755 12.334 10.65 13.0653 10.5577C13.474 10.5082 13.6045 10.4145 13.6045 10.1978V10.0612C13.6045 9.75225 13.3435 9.5775 12.8793 9.5775C12.3955 9.5775 12.1615 9.7575 12.1173 10.155H11.5975C11.6283 9.405 12.112 9.102 12.898 9.102C13.6975 9.102 14.1183 9.411 14.1183 9.9885V11.7975C14.1183 11.9587 14.218 12.051 14.398 12.051C14.4288 12.0495 14.4535 12.0495 14.5098 12.0382Z" fill="white" fill-opacity="0.5"/>
</svg>
