<svg width="19" height="18" viewBox="0 0 19 18" fill="none" xmlns="http://www.w3.org/2000/svg">
<path d="M11.1876 0.135L11.8626 0.285L12.4101 0.48L12.8526 0.705L13.1901 0.945L13.4451 1.2L13.6326 1.455L13.7526 1.7025L13.8276 1.9275L13.8576 2.1225L13.8726 2.2725L13.8651 2.37V6.375L13.8276 6.8475L13.7301 7.26L13.5726 7.605L13.3776 7.89L13.1526 8.1225L12.9051 8.31L12.6426 8.4525L12.3801 8.5575L12.1326 8.6325L11.9076 8.685L11.7126 8.715L11.5551 8.73H7.07758L6.56008 8.7675L6.11758 8.8725L5.74258 9.0375L5.43508 9.24L5.18758 9.48L4.98508 9.7425L4.83508 10.0125L4.72258 10.29L4.64758 10.5525L4.59508 10.7925L4.56508 10.995L4.55008 11.1525V13.4475H2.87758L2.72008 13.425L2.51008 13.3725L2.27008 13.2825L2.00758 13.1475L1.73758 12.9525L1.46758 12.6825L1.20508 12.3375L0.965078 11.895L0.755078 11.3475L0.597578 10.6875L0.492578 9.9L0.455078 8.9775L0.500078 8.0625L0.620078 7.2825L0.800078 6.63L1.04008 6.0975L1.31008 5.67L1.61008 5.34L1.92508 5.0925L2.24008 4.9125L2.54008 4.7925L2.81008 4.7175L3.05008 4.68L3.23008 4.6725H3.35008L3.39508 4.68H9.51508V4.0575H5.13508L5.12758 1.995L5.11258 1.7175L5.15008 1.4625L5.23258 1.23L5.36008 1.02L5.54758 0.825L5.78008 0.6525L6.06508 0.5025L6.39508 0.3675L6.77758 0.255L7.21258 0.165L7.69258 0.09L8.22508 0.045L8.80258 0.015L9.43258 0L10.3851 0.0375L11.1876 0.135ZM6.46258 1.62L6.29008 1.8675L6.23008 2.175L6.29008 2.4825L6.46258 2.7375L6.71008 2.9025L7.01758 2.97L7.32508 2.9025L7.57258 2.7375L7.74508 2.4825L7.80508 2.175L7.74508 1.8675L7.57258 1.62L7.32508 1.455L7.01758 1.3875L6.71008 1.455L6.46258 1.62ZM16.2801 4.5825L16.4901 4.6275L16.7301 4.7175L16.9926 4.8525L17.2626 5.055L17.5326 5.3175L17.7951 5.67L18.0351 6.1125L18.2451 6.66L18.4026 7.32L18.5076 8.1L18.5451 9.0225L18.5001 9.945L18.3801 10.725L18.2001 11.37L17.9601 11.9025L17.6901 12.33L17.3901 12.6675L17.0751 12.915L16.7601 13.095L16.4601 13.215L16.1901 13.2825L15.9501 13.32L15.7701 13.335L15.6501 13.3275H9.48508V13.9425H13.8651L13.8726 16.0125L13.8876 16.2825L13.8501 16.5375L13.7676 16.77L13.6401 16.9875L13.4526 17.175L13.2201 17.355L12.9351 17.505L12.6051 17.6325L12.2226 17.745L11.7876 17.8425L11.3076 17.91L10.7751 17.9625L10.1976 17.9925L9.56758 18L8.61508 17.97L7.81258 17.865L7.13758 17.715L6.59008 17.5275L6.14758 17.3025L5.81008 17.055L5.55508 16.8L5.36758 16.545L5.24758 16.2975L5.17258 16.0725L5.14258 15.885L5.12758 15.735L5.13508 15.6375V11.6325L5.17258 11.1525L5.27008 10.7475L5.42758 10.4025L5.62258 10.1175L5.84758 9.8775L6.09508 9.6975L6.35758 9.5475L6.62008 9.4425L6.86758 9.3675L7.09258 9.3225L7.28758 9.2925L7.44508 9.2775L7.54258 9.27H11.9226L12.4401 9.2325L12.8826 9.1275L13.2576 8.97L13.5651 8.76L13.8126 8.52L14.0151 8.2575L14.1651 7.9875L14.2776 7.7175L14.3526 7.455L14.4051 7.215L14.4351 7.005L14.4501 6.8475V4.5525H16.0176L16.1226 4.56L16.2801 4.5825ZM11.4276 15.27L11.2551 15.5175L11.1951 15.825L11.2551 16.1325L11.4276 16.38L11.6751 16.5525L11.9826 16.6125L12.2901 16.5525L12.5376 16.38L12.7101 16.1325L12.7701 15.825L12.7101 15.5175L12.5376 15.27L12.2901 15.0975L11.9826 15.0375L11.6751 15.0975L11.4276 15.27Z" fill="white" fill-opacity="0.5"/>
</svg>
